<?xml version="1.0" encoding="utf-8"?>
<!-- Generator: Adobe Illustrator 27.9.0, SVG Export Plug-In . SVG Version: 6.00 Build 0)  -->
<svg version="1.1" id="Layer_2_00000031921715742647099840000000383873784652702128_"
	 xmlns="http://www.w3.org/2000/svg" xmlns:xlink="http://www.w3.org/1999/xlink" x="0px" y="0px" viewBox="0 0 122.6 30.5"
	 style="enable-background:new 0 0 122.6 30.5;" xml:space="preserve">
<style type="text/css">
	.st0{fill:#667085;}
</style>
<g id="Layer_1-2">
	<g>
		<path class="st0" d="M11.1,16.1H7l2.2-7.3C9.2,8.8,11.2,16.1,11.1,16.1z M4.8,24.2l1.4-4.8h5.6l1.3,4.8h5.2L13.2,5.9
			c-0.3-1.1-1-1.6-2.1-1.6H3.8v1.7h0.6c0.7,0,1.2,0.3,1.2,0.9c0,0.4-0.1,0.7-0.4,1.6L0,24.2L4.8,24.2L4.8,24.2z"/>
		<path class="st0" d="M24.4,24.2V5.8c0-1-0.6-1.6-1.5-1.6h-4.6V6h0.3c0.7,0,1.1,0.3,1.1,1.2v17L24.4,24.2L24.4,24.2z"/>
		<path class="st0" d="M32.4,24.2V5.8c0-1-0.6-1.6-1.5-1.6h-4.6V6h0.3c0.7,0,1.1,0.3,1.1,1.2v17L32.4,24.2L32.4,24.2z"/>
		<path class="st0" d="M40.5,6.2c0-1.3-1-2.1-2.7-2.1s-2.7,0.8-2.7,2.1s1,2.1,2.7,2.1S40.5,7.5,40.5,6.2z M40.4,10.8
			c0-1-0.6-1.5-1.5-1.5h-4.5v1.7h0.2c0.7,0,1.1,0.3,1.1,1.1v12h4.7C40.4,24.3,40.4,10.8,40.4,10.8z"/>
		<path class="st0" d="M50.6,17v2.9c-0.7,0.8-1.7,1.3-2.5,1.3s-1.2-0.4-1.2-1.6s0.2-1.6,1.1-1.9C48.8,17.4,49.7,17.1,50.6,17
			 M44.3,13.5c1.4-0.7,3-1.1,4.6-1.1c1.2,0,1.7,0.4,1.7,1.7v0.3c-1.9,0.3-2.5,0.4-3.6,0.7c-0.6,0.2-1.2,0.3-1.7,0.6
			c-1.9,0.7-2.8,2.2-2.8,4.4c0,2.8,1.2,4.2,3.8,4.2c0.8,0,1.7-0.2,2.5-0.5c0.7-0.3,1.4-0.7,2-1.3v0.2c0,0.9,0.5,1.4,1.4,1.4h4.3
			v-1.6h-0.2c-0.8,0-1.1-0.3-1.1-1.3v-7c0-3.8-1.3-5.1-5.1-5.1c-1.2,0-2.4,0.2-3.5,0.4c-1.1,0.2-2.1,0.7-3.1,1.2L44.3,13.5
			L44.3,13.5L44.3,13.5z"/>
		<path class="st0" d="M63.2,24.2V14.1c0.7-0.9,1.6-1.2,2.5-1.2c1,0,1.2,0.4,1.2,1.9v9.4h4.7V14c0-2.4-0.2-3.1-0.9-3.9
			C70.1,9.4,69.1,9,67.8,9C66,9,64.7,9.6,63,11.1v-0.5c0-0.9-0.5-1.4-1.4-1.4h-4.4V11h0.2c0.7,0,1.1,0.3,1.1,1.1v12H63.2L63.2,24.2
			L63.2,24.2z"/>
		<path class="st0" d="M85.3,21h-6.5l6.1-8.7v-3h-9.7c-1.1,0-1.6,0.5-1.6,1.6v2.7h1.7v-0.2c0-0.7,0.3-1,1.1-1h3.4L73.5,21v3h11.6
			L85.3,21C85.3,21,85.3,21,85.3,21z"/>
		<path class="st0" d="M109.6,23.8V7c0-1.3-0.5-1.8-1.8-1.8h-3.9v1.9h0.2c0.9,0,1.1,0.2,1.1,1.3v15.4
			C105.2,23.8,109.6,23.8,109.6,23.8z M111.6,23.8h4.3V10.7c0-1.3-0.5-1.8-1.8-1.8h-2.5C111.6,8.9,111.6,23.8,111.6,23.8z
			 M103.3,23.8V8.9h-2.6c-1.3,0-1.8,0.5-1.8,1.8v13L103.3,23.8L103.3,23.8z M120,15.2c0,7.4-5.3,12.8-12.6,12.8s-12.6-5.4-12.6-12.8
			s5.3-12.8,12.6-12.8S120,7.9,120,15.2z M122.6,15.2c0-8.7-6.6-15.2-15.2-15.2S92.2,6.6,92.2,15.2s6.5,15.2,15.2,15.2
			S122.6,23.9,122.6,15.2z"/>
	</g>
</g>
</svg>
