<?xml version="1.0" encoding="utf-8"?>
<!-- Generator: Adobe Illustrator 27.9.0, SVG Export Plug-In . SVG Version: 6.00 Build 0)  -->
<svg version="1.1" id="Layer_2_00000030488749390220097800000004338591438182012548_"
	 xmlns="http://www.w3.org/2000/svg" xmlns:xlink="http://www.w3.org/1999/xlink" x="0px" y="0px" viewBox="0 0 126.9 51"
	 style="enable-background:new 0 0 126.9 51;" xml:space="preserve">
<style type="text/css">
	.st0{fill:#667085;}
</style>
<g id="Layer_1-2">
	<path class="st0" d="M98.8,0h28.1v39.8c-0.1,0-0.2,0-0.3,0c-1.4,0-2.9,0-4.3,0c-1,0-1.9,0-2.9,0c-0.3,0-0.3,0-0.3,0.3
		c-0.1,0.4-0.2,0.8-0.3,1.2c-0.7,2.6-1.3,5.2-1.9,7.9c-0.1,0.2-0.1,0.3-0.3,0.3c-1.1,0.2-2.3,0.5-3.4,0.7c-2.5,0.4-5,0.7-7.6,0.8
		c-0.2,0-0.3,0-0.5,0h-1.7c-0.2-0.1-0.5,0-0.7-0.1c-1.4-0.1-2.7-0.3-4-0.6c-1.4-0.4-2.7-1-3.8-1.8c-1.6-1.3-2.6-3-3-5
		c-0.3-1.1-0.3-2.3-0.3-3.4c0-0.2,0-0.2-0.2-0.2c-1.2,0-2.3,0-3.5,0c-0.2,0-0.2,0-0.3,0.2c-0.2,0.8-0.3,1.5-0.5,2.2
		c-0.6,2.6-1.1,5.2-1.7,7.9c-0.1,0.3-0.1,0.3-0.3,0.3c-2.1,0-4.2,0-6.3,0c-0.1,0-0.2,0-0.2,0c0,0,0-0.1,0-0.1c0.7-3,1.3-6,1.9-9
		c0.1-0.4,0.2-0.8,0.2-1.2c0.1-0.2,0-0.2-0.2-0.2c-0.1,0-0.1,0-0.2,0c-1.2,0-2.3,0-3.5,0c-0.4,0-0.6,0.1-0.8,0.4
		c-2.1,3.3-4.2,6.6-6.3,9.9c-0.1,0.2-0.2,0.2-0.4,0.2c-1.8,0-3.5,0-5.3,0c-0.3,0-0.3,0-0.3-0.3c0-1.5,0-3,0-4.5c0-1.9,0-3.7,0-5.6
		c0-0.3,0-0.3-0.3-0.3c-0.8,0-1.6,0-2.5,0c-0.5,0-0.4-0.1-0.5,0.4c-0.9,3.3-1.8,6.6-2.8,9.9c-0.1,0.3,0,0.3-0.4,0.3
		c-2.1,0-4.3,0-6.4,0c-0.1,0-0.2,0-0.3,0c0-0.1,0-0.2,0.1-0.3c0.9-3.3,1.9-6.6,2.8-9.8c0.1-0.4,0.1-0.4-0.3-0.4
		c-5.4,0-10.8,0-16.2,0c-0.3,0-0.3-0.1-0.4,0.3c-1,3.3-2,6.6-3,10c-0.1,0.4,0,0.3-0.5,0.3c-2.1,0-4.1,0-6.2,0c-0.1,0-0.2,0-0.4,0
		c1.1-3.5,2.1-7,3.2-10.6H18.2c1.7,3.5,3.4,7.1,5.1,10.6c-0.1,0-0.2,0-0.4,0c-2.3,0-4.6,0-7,0c-0.2,0-0.4-0.1-0.5-0.3
		c-1.1-2.2-2.2-4.4-3.3-6.6c-0.6-1.2-1.2-2.3-1.7-3.5c-0.1-0.2-0.2-0.3-0.4-0.2c-0.2,0-0.3,0-0.5,0c-0.1,0-0.2,0-0.2,0.1
		c0,0.1,0,0.1-0.1,0.2c-1,3.3-2,6.7-3,10c-0.1,0.2-0.2,0.3-0.4,0.3c-1.9,0-3.8,0-5.7,0c-0.1,0-0.2,0-0.3,0c0-0.1,0-0.2,0.1-0.4
		c2.3-7.7,4.6-15.5,7-23.2c0.1-0.2,0.1-0.5,0.1-0.7c0-8.6,0-17.2,0-25.8c0-0.1,0-0.2,0-0.3h28.2c0,7.6,0,15.2,0,22.8
		c0,0.1,0,0.1,0,0.2c0,0.2,0,0.2,0.2,0.2c0.6,0,1.1,0,1.7,0c0.5,0,0.4,0,0.4-0.4c0-7.5,0-14.9,0-22.4c0-0.1,0-0.3,0-0.4h28.1
		c0,0.1,0,0.2,0,0.4c0,7.5,0,14.9,0,22.4c0,0.1,0,0.2,0,0.3c0,0.1,0,0.2,0.2,0.2c0.7,0,1.3,0,2,0c0.1,0,0.2,0,0.2-0.2
		c0,0,0-0.1,0-0.1c0-7.6,0-15.2,0-22.9h28.2c0,0.1,0,0.2,0,0.3c0,9,0,18,0,27v0.4c0.1-0.1,0.2-0.2,0.2-0.3c0.6-0.6,1.2-1.2,1.8-1.8
		c0.2-0.2,0.3-0.3,0.3-0.6c0-8.2,0-16.5,0-24.7C98.7,0.3,98.7,0.2,98.8,0L98.8,0z M119.3,38.8c0.2,0,0.3,0,0.4,0c1.9,0,3.9,0,5.8,0
		c0.3,0,0.4-0.1,0.4-0.4c0-12.3,0-24.7,0-37c0-0.3-0.1-0.4-0.4-0.4c-8.5,0-16.9,0-25.4,0c-0.4,0-0.4-0.1-0.4,0.4
		c0,6.6,0,13.1,0,19.7c0,1.1,0,2.2,0,3.3c0,0.1,0,0.2,0,0.3c0,0,0.1,0,0.1,0c0,0,0.1,0,0.1-0.1c2.6-1.6,5.5-2.5,8.5-2.8
		c1.3-0.1,2.6-0.2,3.9-0.1c1.2,0,2.4,0.2,3.6,0.4c1.1,0.2,2.2,0.6,3.2,1.2c1.8,1.1,2.6,2.8,2.7,4.9c0,0.8-0.1,1.6-0.3,2.4
		c0,0.1-0.1,0.2-0.2,0.2c-0.1,0-0.1,0-0.2,0c-2.4,0-4.8,0-7.2,0c-0.1,0-0.1,0-0.2,0c-0.1,0-0.2,0-0.1-0.1c0-0.2,0-0.4,0-0.6
		c0-1.3-0.7-2.2-1.9-2.7c-0.5-0.2-1-0.3-1.5-0.3c-1.9-0.1-3.7,0.4-5.3,1.5c-1.3,0.9-2.2,2-3,3.3c-1,1.7-1.7,3.6-2.1,5.6
		c-0.1,0.4-0.1,0.8-0.1,1.2c0,0.2,0.1,0.2,0.2,0.2c0,0,0.1,0,0.1,0c1.9,0,3.8,0,5.8,0c0.3,0,0.3,0,0.4-0.3c0.3-1.3,0.6-2.5,0.9-3.8
		c0.1-0.3,0.1-0.3,0.3-0.3c4.2,0,8.4,0,12.7,0c0.1,0,0.2,0,0.3,0C120.1,35.9,119.7,37.3,119.3,38.8L119.3,38.8z M30,23.2
		c-0.1,0.1-0.2,0.2-0.3,0.3c-4.2,4.3-8.5,8.7-12.8,13c0,0-0.1,0.1-0.1,0.1c-0.1,0.1-0.1,0.1,0,0.2c0.3,0.6,0.6,1.2,0.9,1.8
		c0,0.1,0.1,0.1,0.2,0.1c0.1,0,0.2,0,0.2,0c3.8,0,7.6,0,11.4,0c0.4,0,0.6-0.2,0.7-0.5c1.3-4.5,2.7-8.9,4-13.4
		c0.1-0.2,0.1-0.5,0.1-0.7c0-7.6,0-15.2,0-22.8C34.3,1,34.4,1,34,1C25.5,1,17,1,8.5,1C8.1,1,8.2,1,8.2,1.4c0,7.1,0,14.3,0,21.4
		c0,0,0,0.1,0,0.1c0,0.2,0.1,0.2,0.2,0.2c0.1,0,0.1,0,0.2,0c1.8,0,3.7,0,5.5,0c0.1,0,0.2,0,0.3,0c-1.1,3.7-2.2,7.3-3.3,11
		c0.2,0,0.2-0.2,0.3-0.2c3.3-3.5,6.6-7,9.8-10.6c0.2-0.2,0.3-0.2,0.6-0.2c2.6,0,5.2,0,7.8,0L30,23.2L30,23.2z M87.6,38.8
		C87.6,38.8,87.7,38.8,87.6,38.8c1.3,0,2.5,0,3.7,0c0.1,0,0.2,0,0.2-0.1c0-0.3,0.1-0.6,0.1-0.9c0.6-3.1,1.8-5.9,3.6-8.5
		c0.1-0.2,0.2-0.4,0.2-0.6c0-9.1,0-18.2,0-27.3C95.4,1,95.4,1,95,1c-8.5,0-16.9,0-25.4,0c-0.4,0-0.4,0-0.4,0.4c0,12.4,0,24.7,0,37.1
		c0,0.1,0,0.1,0,0.2c0,0.1,0.1,0.2,0.2,0.1c0.1,0,0.2,0,0.2,0c0.3,0,0.4-0.1,0.6-0.3c1.4-2.3,2.9-4.5,4.3-6.8
		c1.7-2.8,3.5-5.5,5.2-8.2c0.1-0.1,0.2-0.2,0.4-0.2c3.5,0,7.1,0,10.6,0c0.1,0,0.2,0,0.3,0.1C89.8,28.4,88.7,33.6,87.6,38.8
		L87.6,38.8z M47,38.8c0.1,0.1,0.2,0,0.3,0c2.1,0,4.1,0,6.2,0c0.3,0,0.3,0.1,0.4-0.3c1.3-4.4,2.5-8.8,3.8-13.2
		c0.2-0.6,0.4-1.3,0.6-2c0-0.2,0.1-0.2,0.3-0.2c0.1,0,0.1,0,0.2,0c1.9,0,3.9,0,5.8,0c0.4,0,0.3,0,0.3-0.4c0-3.5,0-6.9,0-10.4
		c0-3.7,0-7.4,0-11.2c0-0.3,0-0.3-0.3-0.3c0,0,0,0-0.1,0c-8.5,0-17,0-25.5,0c-0.4,0-0.3,0-0.3,0.3c0,7.2,0,14.3,0,21.5
		c0,0.1,0,0.1,0,0.2c0,0.1,0.1,0.2,0.2,0.2c0,0,0.1,0,0.2,0c1.2,0,2.4,0,3.5,0c1.7,0,3.4-0.1,5.1,0.1c0.9,0.1,1.9,0.2,2.8,0.6
		c1.3,0.5,2.2,1.4,2.7,2.7c0.3,0.9,0.4,1.8,0.3,2.8c0,0.7-0.2,1.4-0.3,2.1c-0.3,1.5-0.8,2.9-1.8,4.2c-1.1,1.4-2.4,2.4-4,3
		C47.3,38.7,47.2,38.7,47,38.8L47,38.8z M111.8,39.8c-0.1-0.1-0.2,0-0.3,0c-3.8,0-7.6,0-11.5,0c-0.1,0-0.1,0-0.2,0
		c-0.1,0-0.2,0-0.2,0.2c0,0.4,0.1,0.9,0.1,1.3c0.4,1.9,1.5,3.2,3.3,3.9c1,0.4,2.1,0.5,3.1,0.5c1.3,0,2.7-0.2,4-0.4
		c0.2,0,0.3-0.1,0.4-0.4c0.4-1.5,0.8-3.1,1.2-4.7C111.7,40.1,111.8,40,111.8,39.8L111.8,39.8z M38.2,35.1c0,0,0.1,0,0.1,0
		c0.9,0,1.8,0,2.7,0c0.7,0,1.3-0.1,2-0.2c1.4-0.3,2.5-1.1,3.1-2.5c0.3-0.7,0.5-1.4,0.7-2.1c0.1-0.4,0.2-0.8,0.1-1.2
		c0-0.6-0.3-1.1-0.9-1.3c-0.2-0.1-0.4-0.1-0.6-0.2c-0.6-0.1-1.2-0.2-1.8-0.2c-1.1,0-2.2,0-3.2,0c-0.3,0-0.3,0-0.4,0.3
		c-0.6,2.4-1.2,4.7-1.9,7.1C38.2,35,38.2,35,38.2,35.1L38.2,35.1z M76.9,38.8C76.9,38.8,76.9,38.8,76.9,38.8c1.3,0,2.5,0,3.8,0
		c0.1,0,0.2-0.1,0.2-0.2c0.1-0.3,0.1-0.7,0.2-1c0.6-2.6,1.1-5.2,1.7-7.8c0-0.1,0.1-0.1,0-0.2C80.8,32.7,78.8,35.7,76.9,38.8
		L76.9,38.8z M63.4,29.2C63.4,29.2,63.4,29.2,63.4,29.2c-1,3.2-1.9,6.4-2.8,9.5c0.1,0.1,0.2,0,0.3,0c0.7,0,1.5,0,2.2,0
		c0.3,0,0.3,0,0.3-0.3c0,0,0,0,0,0c0-3-0.1-6-0.1-9C63.5,29.4,63.5,29.3,63.4,29.2L63.4,29.2z"/>
</g>
</svg>
