<?xml version="1.0" encoding="utf-8"?>
<!-- Generator: Adobe Illustrator 27.9.0, SVG Export Plug-In . SVG Version: 6.00 Build 0)  -->
<svg version="1.1" id="Layer_2_00000115500248284542962140000016939110031162794934_"
	 xmlns="http://www.w3.org/2000/svg" xmlns:xlink="http://www.w3.org/1999/xlink" x="0px" y="0px" viewBox="0 0 115.7 95.7"
	 style="enable-background:new 0 0 115.7 95.7;" xml:space="preserve">
<style type="text/css">
	.st0{fill:#667085;}
	.st1{opacity:0.49;}
</style>
<g id="Layer_1-2">
	<g id="Capa_2">
		<g id="Layer_1-3">
			<path class="st0" d="M53.8,95.7c-26.4,0-47.9-21.5-47.9-47.9S27.4,0,53.8,0s47.9,21.5,47.9,47.9S80.1,95.7,53.8,95.7z M53.8,1.1
				C28,1.1,7,22.1,7,47.9s21,46.8,46.8,46.8s46.8-21,46.8-46.8S79.5,1.1,53.8,1.1L53.8,1.1z"/>
			<circle class="st0" cx="51" cy="9.6" r="0.5"/>
			<circle class="st0" cx="56.4" cy="10.3" r="0.5"/>
			<circle class="st0" cx="63.6" cy="20" r="0.5"/>
			<circle class="st0" cx="24.4" cy="69.5" r="0.5"/>
			<circle class="st0" cx="25.8" cy="73.7" r="0.5"/>
			<circle class="st0" cx="19.2" cy="70.1" r="0.4"/>
			<circle class="st0" cx="40.7" cy="78.4" r="0.4"/>
			<circle class="st0" cx="74.6" cy="71.4" r="0.4"/>
			<circle class="st0" cx="84.4" cy="60.7" r="0.4"/>
			<circle class="st0" cx="36.2" cy="23.1" r="0.4"/>
			<circle class="st0" cx="47" cy="15.1" r="0.4"/>
			<circle class="st0" cx="45.9" cy="14.3" r="0.4"/>
			<circle class="st0" cx="44.8" cy="13.6" r="0.4"/>
			<circle class="st0" cx="37.9" cy="25.1" r="0.4"/>
			<circle class="st0" cx="53.9" cy="4.4" r="0.4"/>
			<circle class="st0" cx="56.5" cy="15.9" r="0.4"/>
			<circle class="st0" cx="52.3" cy="13.7" r="0.4"/>
			<circle class="st0" cx="45.3" cy="16.7" r="0.4"/>
			<circle class="st0" cx="76.5" cy="81.9" r="0.4"/>
			<circle class="st0" cx="23.7" cy="72.2" r="0.4"/>
			<circle class="st0" cx="51.4" cy="77.3" r="0.4"/>
			<circle class="st0" cx="31.9" cy="71.8" r="0.4"/>
			<circle class="st0" cx="35.4" cy="77.5" r="0.4"/>
			<circle class="st0" cx="60.7" cy="73.9" r="0.4"/>
			<circle class="st0" cx="74.7" cy="66.1" r="0.4"/>
			<circle class="st0" cx="85.2" cy="70.9" r="0.4"/>
			<circle class="st0" cx="88.8" cy="73.2" r="0.4"/>
			<circle class="st0" cx="89.4" cy="66.9" r="0.4"/>
			<circle class="st0" cx="36.8" cy="58" r="0.4"/>
			<circle class="st0" cx="37" cy="67.1" r="0.5"/>
			<circle class="st0" cx="40.1" cy="73.8" r="0.5"/>
			<circle class="st0" cx="78.3" cy="66.8" r="0.5"/>
			<circle class="st0" cx="92" cy="66.1" r="0.5"/>
			<circle class="st0" cx="85.2" cy="63.2" r="0.5"/>
			<circle class="st0" cx="78.3" cy="63.4" r="0.5"/>
			<path class="st0" d="M64,9.3l1.3-0.1L64,9.1c0-0.2-0.2-0.4-0.5-0.5l-0.2-1.3v1.3c-0.2,0.1-0.4,0.2-0.5,0.5l-1.3,0.1l1.4,0.1
				c0,0.2,0.2,0.4,0.5,0.4l0.1,1.3l0.1-1.4C63.7,9.7,63.9,9.5,64,9.3L64,9.3z"/>
			<path class="st0" d="M41.7,24l1.3-0.1l-1.3-0.1c0-0.3-0.2-0.5-0.5-0.5L41.1,22L41,23.3c-0.2,0.1-0.4,0.3-0.5,0.5l-1.3,0.1
				l1.4,0.1c0,0.2,0.2,0.4,0.5,0.5l0.1,1.4l0.1-1.4C41.5,24.4,41.7,24.2,41.7,24L41.7,24z"/>
			<path class="st0" d="M91,62.8l1.3-0.1L91,62.6c0-0.3-0.2-0.5-0.5-0.5l-0.1-1.3l-0.1,1.3c-0.2,0.1-0.4,0.3-0.4,0.5l-1.3,0.2
				l1.4,0.1c0.1,0.2,0.2,0.4,0.5,0.5l0.1,1.3l0.1-1.3C90.8,63.3,91,63.1,91,62.8L91,62.8z"/>
			<path class="st0" d="M37.2,83.1l1.3-0.1l-1.3-0.1c0-0.3-0.2-0.5-0.5-0.5l-0.1-1.3l-0.1,1.3c-0.2,0.1-0.4,0.3-0.4,0.5l-1.3,0.1
				l1.4,0.1c0,0.2,0.2,0.4,0.5,0.4l0.1,1.4l0.1-1.3C37,83.6,37.2,83.4,37.2,83.1L37.2,83.1z"/>
			<path class="st0" d="M86.8,73.2l1.3-0.1L86.8,73c0-0.3-0.2-0.5-0.5-0.5l-0.1-1.3l-0.1,1.3c-0.2,0.1-0.4,0.2-0.4,0.5l-1.3,0.1
				l1.3,0.1c0.1,0.2,0.2,0.4,0.5,0.4l0.1,1.3l0.1-1.3C86.6,73.7,86.8,73.5,86.8,73.2L86.8,73.2z"/>
			<g class="st1">
				<path class="st0" d="M65,36.5c-5.5,2.1-10.9,4-15.4,5.5C40.4,44.9,15.2,52.7,0,62.5L1.3,63c9.3-5.3,15.3-6.9,21.1-8.7
					c6.3-2,26.6-6.7,35.9-9.3c3.1-0.9,6.8-2,10.6-3.4C68,40.3,67,39.1,66,37.8L65,36.5L65,36.5z M71.8,45.8
					c-1.3,0.9-2.4,1.6-3.2,2.1C64,50.5,41.9,65.6,36.9,69c-5,3.4-18.9,16.6-23.1,20.5L13.6,91c7.2-6.7,14.8-12.9,22.6-18.8
					c6.5-4.9,20-14.1,24.5-17c4.4-2.8,8.3-5.4,11.9-7.8l-0.2-0.3C72.2,46.7,71.9,46.2,71.8,45.8L71.8,45.8z M92.4,24
					c-6.4,3.8-16.6,8.3-26.5,12.2l0.7,0.9c1.1,1.4,2.1,2.8,3.2,4.2c7.7-2.8,16.2-6.7,23-11.3c-3.2,3-13.8,11-20.3,15.4
					c0.3,0.5,0.7,1.1,1,1.6c9.8-6.6,16.4-11.4,20.3-14.6c5.3-4.5,17.4-14.4,22-27.8C107.6,14.8,98.1,20.6,92.4,24L92.4,24z"/>
			</g>
			<path class="st0" d="M47.7,59.6c-1.1-1.3-2.5-3.1-3.6-4.4c-1.4-1.8-2.8-3.7-4-5.5L38.9,50c1.5,2.4,3.2,4.7,4.9,6.9
				c1.3,1.7,2.5,3,3.2,3.8c0.1,0.2,0.4,0.5,0.7,1.1l1.2-0.8C48.4,60.5,48,60.1,47.7,59.6L47.7,59.6z M55.3,66.6
				c-0.8-0.8-2.9-2.1-5.1-4.2l-1.5,1c1.4,2,3.3,4.4,4.8,5.1C55.8,69.5,56.4,67.5,55.3,66.6L55.3,66.6L55.3,66.6z M66.6,37
				c-12.4-15.6-27.4-24.1-34-18.9c-5.1,4-3,15.8,4,28.1l1.1-0.4c-7-12-9-23.2-4.2-27c6-4.8,20.5,3.8,32.5,19c2.4,3,4.6,6.1,6.5,9.3
				c7.1,11.7,9.3,22.3,4.4,26.6c-1.5,1.3-6.1,1.8-12.1-0.8c-0.1,0.1,0.1,0.4,0.2,0.5c5.2,2.1,10.1,2.9,12.7,0.9
				C83.6,69.5,79,52.6,66.6,37z"/>
			<path class="st0" d="M13.6,38.9h7.9l6.6,11.3v-8.8c-0.2-1-0.8-1.9-1.7-2.5h5.5c-0.8,0.6-1.3,1.5-1.4,2.5v12.9
				c0,0.8,1.1,1.9,1.7,2.3h-7.6l-6.8-11.3v8.9c0,0.9,0.9,1.7,1.8,2.5h-5.9c0.9-0.5,1.6-1.3,1.7-2.3c0.1-0.9,0-12.3,0-12.8
				C15.5,40.5,14.4,39.6,13.6,38.9L13.6,38.9z"/>
			<path class="st0" d="M86,56.6h10.6c-0.8-0.3-1.4-1-1.6-1.8c-0.3-0.9-5.9-16-5.9-16h-4c-1.1,0.8-2.3,1.7-3.7,2.6v0.1
				c-0.2,1.1-3.3,12.4-3.5,13c-0.3,0.8-1.6,1.7-2.2,2.1h5.7c-0.6-0.5-0.9-1.2-0.9-2c0.1-0.7,0.4-2.1,0.4-2.1h5.9
				c0.2,0.6,0.4,1.3,0.6,1.9C87.5,55.3,86.7,56.1,86,56.6L86,56.6z M81.4,50.3l1.9-6.5l2.6,6.5H81.4z M80.5,39.5l0.9-0.6h-1.5
				C80,39,80.3,39.3,80.5,39.5L80.5,39.5z"/>
			<path class="st0" d="M40.2,54.7c0.1-0.7,0.4-2.1,0.4-2.1h5.9c0.2,0.6,0.4,1.3,0.6,1.9c0.1,0.7-0.6,1.5-1.3,2.1h9.3l0.6-0.4
				c-0.4-0.4-0.7-0.8-0.9-1.4c-0.3-0.9-5.9-16-5.9-16h-9.2c0.4,0.4,1.7,1.5,1.5,2.7s-3.3,12.4-3.5,13c-0.3,0.8-1.6,1.7-2.2,2.1h5.7
				C40.6,56.2,40.2,55.5,40.2,54.7L40.2,54.7z M43.1,43.8l2.6,6.5h-4.6L43.1,43.8z"/>
			<path class="st0" d="M72.3,47.7c-1.7,1.2-3.6,2.4-5.5,3.6c0.9,0.4,1.6,0.9,1.6,1.6c0.1,1.3-2.4,1.9-4.8,1.6
				c-0.5-0.1-0.9-0.2-1.4-0.3l-1.5,0.9c-0.5,0.3-1.1,0.7-1.8,1.2v1.8c0.4-0.9,1.3-1.6,2.2-1.8c0.3,0,1.5,1.1,6.3,0.8
				c2.3-0.1,6.8-2.6,6.8-5.5C74.3,50.1,73.5,48.7,72.3,47.7L72.3,47.7z M59,52.1V54l1.3-0.8C59.9,52.8,59.4,52.5,59,52.1L59,52.1z
				 M70.6,46.5c-0.4-0.2-0.9-0.5-1.3-0.7c-2.3-1.1-4.6-1.3-5.1-2.7c-0.3-1.1,0.6-1.9,3-1.9c1.9,0.1,3.8,0.8,5.3,2v-4.6
				c-0.2,0.2-0.9,1.1-1.7,0.9c-2.1-0.4-4.2-0.7-6.3-0.6c-3,0-5.6,2.3-5.8,5.3c-0.1,4.2,3.2,5.3,5.1,5.9l0.7,0.2
				c1.8-1.2,3.2-2.1,4.1-2.5C69,47.6,69.8,47.1,70.6,46.5C70.6,46.5,70.6,46.5,70.6,46.5z"/>
		</g>
	</g>
</g>
</svg>
