<?xml version="1.0" encoding="utf-8"?>
<!-- Generator: Adobe Illustrator 27.9.0, SVG Export Plug-In . SVG Version: 6.00 Build 0)  -->
<svg version="1.1" id="Layer_2_00000132075133384540387790000005181569609760941967_"
	 xmlns="http://www.w3.org/2000/svg" xmlns:xlink="http://www.w3.org/1999/xlink" x="0px" y="0px" viewBox="0 0 130.7 24.8"
	 style="enable-background:new 0 0 130.7 24.8;" xml:space="preserve">
<style type="text/css">
	.st0{fill:#667085;}
	.st1{fill-rule:evenodd;clip-rule:evenodd;fill:#667085;}
</style>
<g id="Layer_1-2">
	<g id="Capa_2">
		<g id="Layer_1-3">
			<path class="st0" d="M0.2,1.5c3,0.2,3,1.3,3,4.8v8C3.1,17,3.1,17.7,0,18.2v0.4h9v-0.4c-3.4-0.5-3.5-1-3.5-3.9V1.5
				c3,0,5.9,1.5,5.9,4.9c0,2.6-1.7,3.8-4.1,4.2L7.4,11c3-0.4,6.6-1.6,6.6-5.3c0-1-0.6-5.1-8.2-4.8L0.2,1.1V1.5L0.2,1.5z"/>
			<path class="st1" d="M16.4,10.2c0.3-1.3,1.2-2.7,2.6-2.7s2.1,1.3,2.3,2.5C21.4,10,16.4,10.2,16.4,10.2z M16.3,10.7h7.5
				c0-2.1-1.6-3.8-3.7-3.8h-0.3c-3.5,0-5.8,2.9-5.8,6.2c0,3.1,2.2,5.8,5.4,5.8c2,0,3.8-1.3,4.8-3l-0.4-0.3c-0.7,1-1.9,1.7-3.1,1.6
				c-2.9,0-4.8-2.5-4.6-5.2L16.3,10.7C16.3,10.7,16.3,10.7,16.3,10.7z"/>
			<path class="st1" d="M37.9,12.8c0-3.7-2.8-5.9-6.3-5.9s-6.4,2.5-6.4,6c0,3.7,2.8,5.9,6.4,5.9C35,18.8,37.9,16.3,37.9,12.8z
				 M35.5,13c0,2.2-1.2,5.2-3.8,5.2c-2.8,0-4.1-3.1-4.1-5.5s1.1-5.3,3.9-5.3S35.5,10.7,35.5,13L35.5,13z"/>
			<path class="st1" d="M41.9,18.7l1.7,0.1c4.2,0.2,7.3-3.3,7.3-6.6c0-2.8-1.9-5.4-4.9-5.4c-1.5,0-2.9,0.8-4.1,1.6L42,6.8l-0.3-0.1
				l-3.1,1.2v0.3c1.3,0.9,1.3,1.3,1.3,2.4v11.2c0,2-0.1,2.3-1.9,2.6v0.4h6.7v-0.4c-2.7-0.3-2.8-0.5-2.8-2.6V18.7
				C41.9,18.7,41.9,18.7,41.9,18.7z M41.9,8.9c0.7-0.5,1.6-0.8,2.4-0.8c1.3,0,4.4,1.1,4.4,5c0,2.2-1.1,4.9-3.6,4.9
				c-3.1,0-3.2-2.4-3.2-3.8L41.9,8.9C41.9,8.9,41.9,8.9,41.9,8.9z"/>
			<path class="st0" d="M57,18.6v-0.4c-1.9-0.3-2-0.5-2-2.6V0.1L54.7,0l-3,1.1v0.3C53,2.3,53,2.7,53,3.8v11.8c0,2-0.1,2.3-2,2.6v0.4
				H57z"/>
			<path class="st1" d="M59.7,10.2c0.3-1.3,1.2-2.7,2.6-2.7s2.1,1.3,2.3,2.5C64.6,10,59.7,10.2,59.7,10.2z M59.6,10.7h7.5
				c0-2.1-1.6-3.8-3.7-3.8h-0.3c-3.5,0-5.8,2.9-5.8,6.2c0,3.1,2.2,5.8,5.4,5.8c2,0,3.8-1.3,4.8-3l-0.4-0.3c-0.7,1-1.8,1.6-3.1,1.6
				c-2.9,0-4.8-2.5-4.6-5.2C59.5,11.9,59.6,10.7,59.6,10.7z"/>
			<path class="st0" d="M75.3,7.7c-0.9-0.6-1.9-0.9-2.9-0.9c-1.8,0-3.7,1.2-3.7,3.2c0,3.7,5.4,3.1,5.4,6.1c0.1,1.1-0.8,2-1.8,2h-0.1
				c-1.8,0-2.7-1.7-3.1-3.3L68.4,15l0.2,2.9c0.9,0.6,2,1,3.2,1c2.1,0,4.3-1.3,4.3-3.6c0-3.4-5.4-3.3-5.4-5.9
				c-0.1-0.9,0.6-1.7,1.5-1.8h0.2c1.5,0,2,1.4,2.4,2.6l0.6-0.1L75.3,7.7C75.3,7.7,75.3,7.7,75.3,7.7z"/>
			<path class="st1" d="M85.8,1.5c2.6,0,5.4,1,5.4,4.1s-3,3.7-5.4,3.7V1.5z M85.8,9.8l1-0.1c2.7-0.3,5.1,1.7,5.3,4.3v0.2
				c0,2.3-1.6,3.8-3.8,3.8c-2.6,0-2.5-1.9-2.5-3.9V9.8L85.8,9.8z M89.1,9.2c2-0.5,4.6-1.5,4.6-4c0-4.1-5.1-4.4-8-4.3l-5.3,0.2v0.4
				c3,0.4,3,1.2,3.1,3.8v9c-0.1,2.7-0.1,3.5-3.2,3.9v0.4l7.1,0.1c1.3,0,7.5,0.1,7.5-4.7C94.9,10.9,91.5,9.8,89.1,9.2
				C89.1,9.2,89.1,9.2,89.1,9.2z"/>
			<path class="st1" d="M102,12.6v3.9c-0.5,0.5-1.1,0.9-1.9,1c-1.2,0-1.8-1-1.8-2c0-0.4,0.1-0.7,0.2-1L102,12.6
				C102,12.6,102,12.6,102,12.6z M96.2,14.7c-0.1,0.4-0.2,0.7-0.2,1.1c0,1.6,0.9,3,2.6,3c1.3,0,2.5-0.8,3.3-1.8
				c0.1,1,0.6,1.6,1.6,1.6c0.9-0.1,1.8-0.3,2.6-0.6v-0.4c-2.4-0.5-2.2-1-2.2-3.3v-3.7c0-2.1-0.7-3.9-3.1-3.9c-2.1,0-5,2.7-5,3.4
				c0,0.3,0.4,0.3,0.6,0.3l1.3-0.1c0-1.4-0.2-2.3,1.6-2.3c2,0,2.8,1.2,2.6,4L96.2,14.7C96.2,14.7,96.2,14.7,96.2,14.7z"/>
			<path class="st0" d="M107.3,15.6c0,2-0.1,2.3-2,2.6v0.4h6v-0.4c-1.9-0.3-2-0.5-2-2.6V9.4c0.7-0.7,1.6-1.1,2.6-1.1
				c3.2,0,3.1,2.6,3.1,4.4v3c0,2-0.1,2.3-2,2.6v0.4h6v-0.4c-1.9-0.3-2-0.5-2-2.6v-4.6c0-1.5-0.2-4.1-3.3-4.1c-1.7,0-3.1,0.9-4.6,2
				l0.2-1.9L109,7l-3.1,1.1v0.3c1.3,0.9,1.3,1.3,1.3,2.4L107.3,15.6C107.3,15.6,107.3,15.6,107.3,15.6z"/>
			<path class="st1" d="M121.8,0.1L121.5,0l-3,1.1v0.3c1.3,0.9,1.3,1.3,1.3,2.4v11.8c0,2-0.1,2.3-2,2.6v0.4h6v-0.4
				c-1.9-0.3-2-0.5-2-2.6V0.1L121.8,0.1z M123.7,7.3v0.4c2.1,0.7,1,1.3-1.6,4.5c1.3,1.9,4.1,6.5,6.8,6.5c0.6,0,1.2-0.1,1.8-0.2v-0.3
				c-1.4-0.6-2.5-1.8-3.5-2.9l-3.4-4c2-2.3,3.2-3.6,6.1-4.1V6.8L123.7,7.3C123.7,7.3,123.7,7.3,123.7,7.3z"/>
		</g>
	</g>
</g>
</svg>
