<?xml version="1.0" encoding="utf-8"?>
<!-- Generator: Adobe Illustrator 27.9.0, SVG Export Plug-In . SVG Version: 6.00 Build 0)  -->
<svg version="1.1" id="Layer_2_00000160904285152212831760000014061701841934376107_"
	 xmlns="http://www.w3.org/2000/svg" xmlns:xlink="http://www.w3.org/1999/xlink" x="0px" y="0px" viewBox="0 0 106.1 80.8"
	 style="enable-background:new 0 0 106.1 80.8;" xml:space="preserve">
<style type="text/css">
	.st0{clip-path:url(#SVGID_00000073713175915863506540000013489942082014661518_);}
	.st1{fill:#667085;}
	.st2{opacity:0.7;fill:#667085;enable-background:new    ;}
	.st3{opacity:0.9;fill:#667085;enable-background:new    ;}
	.st4{opacity:0.8;fill:#667085;enable-background:new    ;}
</style>
<g id="Layer_1-2">
	<g>
		<defs>
			<rect id="SVGID_1_" width="106.1" height="80.8"/>
		</defs>
		<clipPath id="SVGID_00000134944383653008148770000011699941590433218695_">
			<use xlink:href="#SVGID_1_"  style="overflow:visible;"/>
		</clipPath>
		<g style="clip-path:url(#SVGID_00000134944383653008148770000011699941590433218695_);">
			<g>
				<path class="st1" d="M0.2,78.8l2.3-0.3L2.9,78V55.7H0v-2l7.5-2.4h2.1v2.7c3.8-2.1,5.1-2.7,7.1-2.7c4.4,0,8,4.2,8,9.8
					C24.7,67.6,20,72,13.1,72c-0.9,0-2.1-0.2-3.5-0.3v6.2l0.4,0.4l2.7,0.3l-0.1,2.1H0.2V78.8L0.2,78.8z M9.6,69.4
					c0.3,0,0.8,0.2,1.1,0.2c4.2,0,6.5-2.6,6.5-7.5c0-4.2-1.8-6.3-5.1-6.3c-0.8,0-1.5,0.2-2.3,0.3C9.8,56,9.6,69.4,9.6,69.4z"/>
				<path class="st1" d="M33.8,51.4c0.3,1,0.5,2.3,0.5,3.5l0.5,9.9l6-11.3v-1.2l6.2-0.5l0.8,15.5l5.3-7.4l-1.2-7.5
					c0.9-0.9,2-1.4,3.2-1.2c1.7-0.2,3.2,1,3.3,2.7v0.5c0,2.1-1,4.4-3.8,8.1c-0.9,1.2-3.3,4.4-7.5,9.3H42l-0.9-14l-7.4,14h-5.1
					l0.3-1.8l-0.6-14.8l-4.2-0.5v-1.7l7.4-1.7L33.8,51.4L33.8,51.4L33.8,51.4z"/>
				<path class="st1" d="M71,53.5c-3.5,0.5-5.3,3.2-5.3,7.5s2.4,7.4,6,7.4c1.7,0,3.2-0.4,6.5-2.1v3.6c-3.8,1.8-6.2,2.3-9.2,2.3
					c-2.9,0.3-5.6-0.9-7.7-2.9c-2-2-3-4.7-3-7.4c0-6.3,4.8-10.9,11.9-10.9c4.7,0,8,2.1,8,5.1c0,2.1-1.5,3.3-3.8,3.3
					c-1.2,0-2.3-0.3-3.2-0.9L71,53.5L71,53.5z"/>
				<path class="st1" d="M67.8,34.7H47.9v5.3h19.9V34.7z"/>
				<path class="st2" d="M87.4,0H67.8v4.2h19.6C87.4,4.2,87.4,0,87.4,0z"/>
				<path class="st2" d="M91,4.2h-3.6v5.9H91C91,10.1,91,4.2,91,4.2z"/>
				<path class="st3" d="M87.4,4.2H67.8v6h19.6C87.4,10.2,87.4,4.2,87.4,4.2z"/>
				<path class="st2" d="M100.8,10.1H91V25h9.8V10.1z"/>
				<path class="st4" d="M91,10.1h-3.6V25H91V10.1z"/>
				<path class="st1" d="M80,25h7.4V10.1H67.8v10H80C80,20,80,25,80,25z"/>
				<path class="st4" d="M106.1,25h-5.3v9.5h5.3V25z"/>
				<path class="st3" d="M100.8,25H91v9.5h9.8V25z"/>
				<path class="st1" d="M91,25h-3.6v9.5H91V25z"/>
				<path class="st1" d="M87.4,25H80v9.5h7.4V25z"/>
				<path class="st1" d="M80,20H67.8v5H80V20z"/>
				<path class="st1" d="M80,25H67.8v9.5H80V25z"/>
			</g>
		</g>
	</g>
</g>
</svg>
