<?xml version="1.0" encoding="utf-8"?>
<!-- Generator: Adobe Illustrator 27.9.0, SVG Export Plug-In . SVG Version: 6.00 Build 0)  -->
<svg version="1.1" id="Layer_2_00000101786787106676889140000011747840601124520341_"
	 xmlns="http://www.w3.org/2000/svg" xmlns:xlink="http://www.w3.org/1999/xlink" x="0px" y="0px" viewBox="0 0 140.1 23"
	 style="enable-background:new 0 0 140.1 23;" xml:space="preserve">
<style type="text/css">
	.st0{fill-rule:evenodd;clip-rule:evenodd;fill:#667085;}
</style>
<g id="Layer_1-2">
	<g>
		<path class="st0" d="M16.7,21.8c-1.8-1.2-3.2-5.2-3.2-9.9v-0.5l0,0c-5.2-0.8-8.9-3-9-5.6l0,0c-1.3,1.6-2,3.4-2,5.3
			C2.4,16.8,8.7,21.4,16.7,21.8L16.7,21.8z M0,11.5C0,5.2,7.9,0,17.7,0s17.8,5.2,17.8,11.5S27.6,23,17.8,23S0,17.8,0,11.5L0,11.5z
			 M17.8,1.7c1.9,0,3.5,2.9,4.1,6.8l0,0c3.7-0.6,6.2-1.9,6.2-3.5c0-2-4.7-3.7-10.3-3.7S7.5,3,7.5,5c0,1.6,2.5,2.9,6.2,3.5l0,0
			C14.3,4.6,15.8,1.7,17.8,1.7C17.8,1.7,17.8,1.7,17.8,1.7z M19,21.8c7.9-0.4,14.1-5,14.1-10.8c0-1.9-0.7-3.7-2-5.3l0,0
			c-0.1,2.6-3.8,4.8-9,5.6l0,0v0.5C22.1,16.7,20.8,20.7,19,21.8C19,21.8,19,21.8,19,21.8z M17.8,8.7c0.8,0,1.7,0,2.4-0.1l0,0
			c-0.4-2.5-1.3-4.3-2.4-4.3s-2,1.8-2.4,4.3l0,0C16.1,8.7,16.9,8.7,17.8,8.7L17.8,8.7z M17.8,18.2c1.4,0,2.6-3,2.6-6.7l0,0
			c-0.8,0.1-1.8,0.1-2.6,0.1c-1,0-1.8,0-2.6-0.1l0,0C15.3,15.3,16.3,18.2,17.8,18.2L17.8,18.2z"/>
		<path class="st0" d="M90.4,11.5c0-4.9,4-8.7,8.7-8.7s8.9,4,8.9,8.7s-4,8.7-8.9,8.7S90.4,16.4,90.4,11.5
			C90.4,11.5,90.4,11.5,90.4,11.5z M99.1,17.1c2.8,0,4.9-2.5,4.9-5.6s-2.2-5.6-4.9-5.6s-4.9,2.5-4.9,5.6S96.5,17.1,99.1,17.1
			L99.1,17.1z"/>
		<polygon class="st0" points="117.9,6.3 117.9,19.9 114.2,19.9 114.2,6.3 114.2,6.3 109,6.3 109,3.4 123.1,3.4 123.1,6.3 
			117.9,6.3 		"/>
		<path class="st0" d="M127.6,16.2L127.6,16.2l-1.4,3.7h-4.3l6.8-16.6h4.6l6.8,16.6h-4.3l-1.4-3.7C134.4,16.2,127.6,16.2,127.6,16.2
			z M131,13.4h2.3L131,7.3l0,0l-2.3,6.1H131z"/>
		<polygon class="st0" points="49.5,6.3 49.5,19.9 45.8,19.9 45.8,6.3 45.8,6.3 40.6,6.3 40.6,3.4 54.7,3.4 54.7,6.3 49.5,6.3 		"/>
		<path class="st0" d="M55.6,11.5c0-4.9,4-8.7,8.9-8.7s8.9,4,8.9,8.7s-4,8.7-8.9,8.7S55.6,16.4,55.6,11.5
			C55.6,11.5,55.6,11.5,55.6,11.5z M64.5,17.1c2.8,0,4.9-2.5,4.9-5.6s-2.2-5.6-4.9-5.6s-4.9,2.5-4.9,5.6S61.7,17.1,64.5,17.1
			L64.5,17.1z"/>
		<polygon class="st0" points="81.8,19.9 83.6,19.9 83.6,13.7 83.6,13.7 90.1,3.4 85.8,3.4 81.8,10.3 77.8,3.4 73.5,3.4 79.9,13.7 
			79.9,13.7 79.9,19.9 		"/>
	</g>
</g>
</svg>
