

<svg version="1.1" id="Layer_1" xmlns="http://www.w3.org/2000/svg" xmlns:xlink="http://www.w3.org/1999/xlink" x="0px" y="0px"
	 viewBox="0 0 229.9 86.7" style="enable-background:new 0 0 229.9 86.7;" xml:space="preserve">
<style type="text/css">
	.st0{fill:#00B6B8;}
	.st1{fill:#00BABA;}
	.st2{fill:#8DD906;}
	.st3{fill:#0183D9;}
	.st4{fill:#00A8F2;}
	.st5{fill:#00A1DF;}
	.st6{fill:#00C000;}
	.st7{fill:#1D4267;}
</style>
<g>
	<g>
		<path class="st0" d="M40.5,20.4L38.8,6.5c-1.9,0.2-4.4,0.8-6.3,1.3l4.1,13.4C37.8,20.8,39.1,20.6,40.5,20.4"/>
		<path class="st0" d="M9.1,28.8c-0.7,1.7-1.6,4.2-2,6.1l13.7,3.1c0.3-1.3,0.7-2.5,1.2-3.7L9.1,28.8z"/>
		<path class="st0" d="M18,70.5l9.5-10.3c-1-0.9-1.9-1.9-2.6-2.9l-11.2,8.4C14.8,67.2,16.6,69.1,18,70.5"/>
		<path class="st0" d="M46.2,66.2l1.7,13.9c1.9-0.2,4.4-0.8,6.3-1.3L50,65.4C48.8,65.8,47.5,66.1,46.2,66.2"/>
		<path class="st0" d="M77.5,57.8c0.7-1.7,1.6-4.2,2-6.1l-13.7-3.1c-0.3,1.3-0.7,2.5-1.2,3.7L77.5,57.8z"/>
		<path class="st0" d="M68.6,16.2l-9.5,10.3c1,0.9,1.9,1.9,2.6,2.9L72.9,21C71.8,19.4,70.1,17.5,68.6,16.2"/>
		<path class="st1" d="M40.5,20.4L38.8,6.5c-1.9,0.2-4.4,0.8-6.3,1.3l4.1,13.4C37.8,20.8,39.1,20.6,40.5,20.4"/>
		<path class="st1" d="M9.1,28.8c-0.7,1.7-1.6,4.2-2,6.1l13.7,3.1c0.3-1.3,0.7-2.5,1.2-3.7L9.1,28.8z"/>
		<path class="st1" d="M18,70.5l9.5-10.3c-1-0.9-1.9-1.9-2.6-2.9l-11.2,8.4C14.8,67.2,16.6,69.1,18,70.5"/>
		<path class="st1" d="M46.2,66.2l1.7,13.9c1.9-0.2,4.4-0.8,6.3-1.3L50,65.4C48.8,65.8,47.5,66.1,46.2,66.2"/>
		<path class="st1" d="M77.5,57.8c0.7-1.7,1.6-4.2,2-6.1l-13.7-3.1c-0.3,1.3-0.7,2.5-1.2,3.7L77.5,57.8z"/>
		<path class="st1" d="M68.6,16.2l-9.5,10.3c1,0.9,1.9,1.9,2.6,2.9L72.9,21C71.8,19.4,70.1,17.5,68.6,16.2"/>
		<path class="st2" d="M24.9,29.4c0.8-1.1,1.7-2,2.6-2.9l-3.8-4.1l-7.4-7.9c-1.7,1.5-3.2,3.2-4.5,5l2.6,2L24.9,29.4z"/>
		<path class="st2" d="M6.9,58.8l3.1-1.3L22,52.3c-0.5-1.2-0.9-2.4-1.2-3.7l-5.5,1.3L4.8,52.3C5.3,54.5,6,56.7,6.9,58.8"/>
		<path class="st2" d="M36.6,65.4L34.9,71l-3.1,10.2c2.2,0.7,4.4,1.1,6.6,1.4l0.4-3.4l1.6-12.9C39.1,66.1,37.8,65.8,36.6,65.4"/>
		<path class="st2" d="M61.7,57.3c-0.8,1.1-1.7,2-2.6,2.9l3.9,4.2l7.3,7.8c1.7-1.5,3.2-3.2,4.5-5l-2.7-2L61.7,57.3z"/>
		<path class="st2" d="M79.8,27.9l-3.1,1.3l-12.1,5.1c0.5,1.2,0.9,2.5,1.2,3.7l5.7-1.3l10.4-2.4C81.3,32.1,80.6,30,79.8,27.9"/>
		<path class="st2" d="M50,21.2l1.7-5.5l3.1-10.3c-2.2-0.7-4.4-1.1-6.6-1.4l-0.4,3.3l-1.6,13.1C47.5,20.6,48.8,20.8,50,21.2"/>
		<path class="st2" d="M24.9,29.4c0.8-1.1,1.7-2,2.6-2.9l-3.8-4.1l-7.4-7.9c-1.7,1.5-3.2,3.2-4.5,5l2.6,2L24.9,29.4z"/>
		<path class="st2" d="M6.9,58.8l3.1-1.3L22,52.3c-0.5-1.2-0.9-2.4-1.2-3.7l-5.5,1.3L4.8,52.3C5.3,54.5,6,56.7,6.9,58.8"/>
		<path class="st2" d="M36.6,65.4L34.9,71l-3.1,10.2c2.2,0.7,4.4,1.1,6.6,1.4l0.4-3.4l1.6-12.9C39.1,66.1,37.8,65.8,36.6,65.4"/>
		<path class="st2" d="M61.7,57.3c-0.8,1.1-1.7,2-2.6,2.9l3.9,4.2l7.3,7.8c1.7-1.5,3.2-3.2,4.5-5l-2.7-2L61.7,57.3z"/>
		<path class="st2" d="M79.8,27.9l-3.1,1.3l-12.1,5.1c0.5,1.2,0.9,2.5,1.2,3.7l5.7-1.3l10.4-2.4C81.3,32.1,80.6,30,79.8,27.9"/>
		<path class="st2" d="M50,21.2l1.7-5.5l3.1-10.3c-2.2-0.7-4.4-1.1-6.6-1.4l-0.4,3.3l-1.6,13.1C47.5,20.6,48.8,20.8,50,21.2"/>
		<path class="st3" d="M29.2,2.4c-2.4,0.8-4.7,1.8-6.9,3.1l7.4,13.3c1.4-0.8,2.9-1.4,4.4-2L29.2,2.4z"/>
		<path class="st3" d="M0.8,35.1C0.3,37.5,0,40,0,42.6l15.2,0.2c0-1.6,0.2-3.2,0.5-4.8L0.8,35.1z"/>
		<path class="st3" d="M14.9,76c1.9,1.7,3.9,3.1,6.1,4.4l7.8-13.1c-1.4-0.8-2.7-1.8-3.9-2.8L14.9,76z"/>
		<path class="st3" d="M57.4,84.3c2.4-0.8,4.7-1.8,6.9-3.1l-7.4-13.3c-1.4,0.8-2.9,1.4-4.4,2L57.4,84.3z"/>
		<path class="st3" d="M85.9,51.6c0.5-2.5,0.7-5,0.8-7.5l-15.2-0.2c0,1.6-0.2,3.2-0.5,4.8L85.9,51.6z"/>
		<path class="st3" d="M71.7,10.6c-1.9-1.7-3.9-3.1-6.1-4.4l-7.8,13c1.4,0.8,2.7,1.8,3.9,2.8L71.7,10.6z"/>
		<path class="st4" d="M21,6.2c-2.1,1.3-4.2,2.8-6.1,4.4l10,11.5c1.2-1.1,2.5-2,3.9-2.8L21,6.2z"/>
		<path class="st4" d="M0,44.1c0,1.3,0.1,2.5,0.2,3.8c0.1,1.2,0.3,2.5,0.6,3.7l15-2.9c-0.3-1.6-0.5-3.2-0.5-4.8L0,44.1z"/>
		<path class="st4" d="M22.3,81.2c2.2,1.2,4.5,2.2,6.9,3.1l4.9-14.4c-1.5-0.5-3-1.2-4.4-2L22.3,81.2z"/>
		<path class="st4" d="M65.7,80.5c2.1-1.3,4.2-2.8,6.1-4.4l-10-11.5c-1.2,1.1-2.5,2-3.9,2.8L65.7,80.5z"/>
		<path class="st4" d="M86.6,42.5c0-1.3-0.1-2.5-0.2-3.8c-0.1-1.2-0.3-2.5-0.6-3.7L70.9,38c0.3,1.6,0.5,3.2,0.5,4.8L86.6,42.5z"/>
		<path class="st4" d="M57,18.5l7.3-13.1c-2.2-1.2-4.5-2.2-6.9-3.1l-4.9,14.4c1.5,0.5,3,1.2,4.4,2L57,18.5z"/>
		<path class="st5" d="M21,6.2c-2.1,1.3-4.2,2.8-6.1,4.4l10,11.5c1.2-1.1,2.5-2,3.9-2.8L21,6.2z"/>
		<path class="st5" d="M0,44.1c0,1.3,0.1,2.5,0.2,3.8c0.1,1.2,0.3,2.5,0.6,3.7l15-2.9c-0.3-1.6-0.5-3.2-0.5-4.8L0,44.1z"/>
		<path class="st5" d="M22.3,81.2c2.2,1.2,4.5,2.2,6.9,3.1l4.9-14.4c-1.5-0.5-3-1.2-4.4-2L22.3,81.2z"/>
		<path class="st5" d="M65.7,80.5c2.1-1.3,4.2-2.8,6.1-4.4l-10-11.5c-1.2,1.1-2.5,2-3.9,2.8L65.7,80.5z"/>
		<path class="st5" d="M86.6,42.5c0-1.3-0.1-2.5-0.2-3.8c-0.1-1.2-0.3-2.5-0.6-3.7L70.9,38c0.3,1.6,0.5,3.2,0.5,4.8L86.6,42.5z"/>
		<path class="st5" d="M57,18.5l7.3-13.1c-2.2-1.2-4.5-2.2-6.9-3.1l-4.9,14.4c1.5,0.5,3,1.2,4.4,2L57,18.5z"/>
		<path class="st6" d="M7.8,18.5c-1.4,2.1-2.7,4.2-3.8,6.5l13.8,6.4c0.7-1.5,1.5-2.9,2.4-4.2L7.8,18.5z"/>
		<path class="st6" d="M4.1,61.7c1.1,2.3,2.3,4.5,3.8,6.5l12.5-8.8c-0.9-1.3-1.7-2.7-2.4-4.2L4.1,61.7z"/>
		<path class="st6" d="M78.8,68.2c1.4-2.1,2.7-4.2,3.8-6.5l-13.8-6.4c-0.7,1.5-1.5,2.9-2.4,4.2L78.8,68.2z"/>
		<path class="st6" d="M82.6,25c-1.1-2.3-2.3-4.5-3.8-6.5l-12.4,8.8c0.9,1.3,1.7,2.7,2.4,4.2L82.6,25z"/>
		<path class="st6" d="M45.7,15.3l1.3-15.1C45.9,0.1,44.6,0,43.4,0c-1.3,0-2.6,0.1-3.8,0.2l1.4,15.1c0.8-0.1,1.6-0.1,2.4-0.1
			C44.1,15.2,44.9,15.2,45.7,15.3"/>
		<path class="st6" d="M40.9,71.3l-1.4,15.2c1.3,0.1,2.5,0.2,3.8,0.2c1.2,0,2.5-0.1,3.8-0.2l-1.4-15.2c-0.8,0.1-1.6,0.1-2.4,0.1
			C42.5,71.4,41.7,71.3,40.9,71.3"/>
	</g>
	<g>
		<path class="st7" d="M118.3,29.9c-0.8-0.4-1.5-0.6-2.2-0.6c-0.8,0-1.5,0.2-2.1,0.6c-0.6,0.4-1.1,1-1.5,1.7
			c-0.4,0.7-0.6,1.5-0.6,2.4c0,0.9,0.2,1.7,0.6,2.4c0.4,0.7,0.9,1.3,1.5,1.7c0.6,0.4,1.3,0.6,2.1,0.6c0.7,0,1.4-0.2,2.1-0.5
			c0.8-0.4,1.4-0.9,2-1.5l3,3.2c-0.9,1-2.1,1.9-3.4,2.5c-1.3,0.6-2.7,0.9-4,0.9c-1.8,0-3.3-0.4-4.7-1.2s-2.5-1.9-3.3-3.3
			c-0.8-1.4-1.2-3-1.2-4.7c0-1.7,0.4-3.2,1.2-4.6c0.8-1.4,1.9-2.5,3.4-3.2c1.4-0.8,3-1.2,4.8-1.2c1.3,0,2.6,0.3,4,0.9
			c1.3,0.6,2.4,1.3,3.3,2.3l-3,3.6C119.7,30.9,119,30.3,118.3,29.9z"/>
		<path class="st7" d="M138,42.8l-1-2.8h-7.1l-1.1,2.8h-5.4l7.5-17.5h5.4l7.2,17.5H138z M131.4,36.2h4.3l-2.1-5.7L131.4,36.2z"/>
		<path class="st7" d="M155,41.4c-1.1,1.1-2.7,1.6-4.7,1.6c-2.5,0-4.7-1-6.5-2.9l2.4-3.4c0.6,0.6,1.3,1.1,1.9,1.5
			c0.7,0.3,1.2,0.5,1.7,0.5c0.5,0,0.9-0.1,1.1-0.5c0.3-0.3,0.4-0.7,0.4-1.3v-7.5h-5.9v-4.1h11.2V37C156.7,38.9,156.1,40.4,155,41.4z
			"/>
		<path class="st7" d="M171.8,42.8l-1-2.8h-7.1l-1.1,2.8h-5.4l7.5-17.5h5.4l7.2,17.5H171.8z M165.1,36.2h4.3l-2.1-5.7L165.1,36.2z"
			/>
		<path class="st7" d="M197.5,26.4c1.4,0.7,2.5,1.8,3.3,3.1c0.8,1.3,1.2,2.9,1.2,4.6s-0.4,3.3-1.2,4.6s-1.9,2.4-3.4,3.1
			s-3.1,1.1-5,1.1h-7.5V25.3h7.7C194.4,25.3,196.1,25.6,197.5,26.4z M195.6,37.4c0.7-0.9,1.1-2,1.1-3.4s-0.4-2.5-1.2-3.4
			c-0.8-0.9-1.8-1.3-3-1.3h-2.4v9.3h2.6C193.9,38.7,194.8,38.3,195.6,37.4z"/>
		<path class="st7" d="M204.4,25.3h14.3v4h-9.1V32h8.3v4h-8.3v2.8h9.4v4h-14.6V25.3z"/>
		<path class="st7" d="M106,50.3h5.6l4,12.1l4-12.1h5.3l-6.8,17.5h-5.4L106,50.3z"/>
		<path class="st7" d="M137.6,67.8l-1-2.8h-7.1l-1.1,2.8h-5.4l7.5-17.5h5.4l7.2,17.5H137.6z M131,61.2h4.3l-2.1-5.7L131,61.2z"/>
		<path class="st7" d="M144.7,50.3h5.2v13.2h7.4v4.4h-12.5V50.3z"/>
		<path class="st7" d="M172.5,51.1c1.5,0.8,2.6,1.9,3.4,3.2c0.8,1.4,1.2,2.9,1.2,4.6c0,1.7-0.4,3.3-1.2,4.7c-0.8,1.4-2,2.5-3.4,3.3
			s-3.1,1.2-4.9,1.2c-1.8,0-3.4-0.4-4.9-1.2s-2.6-1.9-3.4-3.3c-0.8-1.4-1.2-3-1.2-4.7c0-1.7,0.4-3.3,1.2-4.6c0.8-1.4,2-2.5,3.4-3.2
			s3.1-1.2,4.9-1.2C169.4,49.9,171.1,50.3,172.5,51.1z M165.6,54.9c-0.7,0.4-1.2,1-1.6,1.7c-0.4,0.7-0.6,1.5-0.6,2.4
			s0.2,1.7,0.6,2.4c0.4,0.7,0.9,1.3,1.6,1.7c0.7,0.4,1.4,0.6,2.1,0.6c0.8,0,1.4-0.2,2.1-0.6c0.6-0.4,1.1-1,1.5-1.7s0.6-1.5,0.6-2.4
			c0-0.9-0.2-1.7-0.6-2.4s-0.9-1.3-1.5-1.7c-0.6-0.4-1.3-0.6-2.1-0.6C167,54.3,166.2,54.5,165.6,54.9z"/>
		<path class="st7" d="M189.8,67.8l-2.3-4.7h-2.8v4.7h-5.2V50.3h8.2c2.3,0,4.2,0.5,5.5,1.6s1.9,2.6,1.9,4.6c0,1.3-0.3,2.4-0.8,3.3
			c-0.5,0.9-1.2,1.7-2.2,2.2l3.6,5.7H189.8z M184.8,59.1h3c0.8,0,1.4-0.2,1.8-0.6c0.4-0.4,0.6-1,0.6-1.8c0-0.8-0.2-1.4-0.6-1.8
			c-0.4-0.4-1-0.6-1.8-0.6h-3V59.1z"/>
		<path class="st7" d="M198,50.3h14.3v4h-9.1V57h8.3v4h-8.3v2.8h9.4v4H198V50.3z"/>
		<path class="st7" d="M224.9,54.5c-1.1-0.4-2-0.6-2.8-0.6c-0.5,0-0.8,0.1-1.1,0.3c-0.3,0.2-0.4,0.4-0.4,0.8c0,0.5,0.3,0.8,0.8,1.1
			s1.3,0.5,2.4,0.8c1.2,0.4,2.3,0.7,3,1.1c0.8,0.4,1.5,0.9,2.1,1.6c0.6,0.7,0.9,1.7,0.9,2.9c0,1.2-0.3,2.2-1,3.1
			c-0.6,0.8-1.5,1.5-2.6,1.9c-1.1,0.4-2.3,0.6-3.7,0.6c-1.5,0-3-0.3-4.5-0.8c-1.5-0.5-2.8-1.2-3.9-2.1l2-4c0.9,0.8,2,1.4,3.2,1.9
			c1.3,0.5,2.4,0.8,3.3,0.8c0.6,0,1-0.1,1.3-0.3c0.3-0.2,0.5-0.5,0.5-0.9c0-0.5-0.3-0.9-0.8-1.1c-0.5-0.3-1.3-0.5-2.4-0.8
			c-1.2-0.3-2.2-0.6-3-1c-0.8-0.3-1.5-0.9-2.1-1.6c-0.6-0.7-0.9-1.7-0.9-2.8c0-1.1,0.3-2.1,0.9-3c0.6-0.8,1.4-1.5,2.5-1.9
			s2.4-0.7,3.8-0.7c1.3,0,2.6,0.2,3.9,0.6c1.3,0.4,2.4,0.9,3.4,1.5l-1.9,4C227,55.4,226,54.9,224.9,54.5z"/>
	</g>
</g>
</svg>
