

<svg version="1.1" id="Capa_1" xmlns="http://www.w3.org/2000/svg" xmlns:xlink="http://www.w3.org/1999/xlink" x="0px" y="0px"
	 width="141.732px" height="141.732px" viewBox="0 0 141.732 141.732" enable-background="new 0 0 141.732 141.732"
	 xml:space="preserve">
<g>
	<path fill-rule="evenodd" clip-rule="evenodd" d="M101.031,100.006c0,0-21.672-28.063-25.046-32.509
		c-3.414-4.485-3.731-4.446-7.145,0c-3.414,4.446-25.126,32.509-25.126,32.509l0,0H101.031L101.031,100.006z"/>
	<path fill-rule="evenodd" clip-rule="evenodd" fill="#BF0411" d="M39.347,100.006c0,0,25.483-33.065,29.135-37.828
		c3.651-4.763,4.128-4.763,7.819,0c3.731,4.803,29.095,37.828,29.095,37.828l0,0h11.434l0,0c0,0-39.537-78.792-40.529-80.936
		c-2.817-6.034-4.802-6.113-7.779,0c-2.819,5.835-40.488,80.936-40.488,80.936l0,0H39.347L39.347,100.006z"/>
	<path fill-rule="evenodd" clip-rule="evenodd" d="M32.043,113.662H28.59l0,0c-2.62,0-3.891-0.874-3.93-3.454
		c0-1.151,0-1.587,0-2.779c0.039-2.818,1.508-3.533,4.167-3.533l0,0h2.858l0,0c2.461,0,4.406,0.675,4.406,3.414l0,0h-3.136l0,0
		c0-0.754-0.476-1.31-1.786-1.31l0,0h-1.786l0,0c-0.992,0-1.667,0.159-1.667,1.707c0,0.794,0,1.271,0,2.064
		c0,1.508,0.834,1.787,1.667,1.787l0,0h1.786l0,0c1.707,0,1.827-0.398,1.827-1.271l0,0h3.096l0,0
		C35.933,112.589,35.179,113.662,32.043,113.662L32.043,113.662L32.043,113.662z"/>
	<polygon fill-rule="evenodd" clip-rule="evenodd" points="37.164,113.622 37.164,104.016 45.856,104.016 45.856,105.921 
		40.18,105.921 40.18,107.707 45.46,107.707 45.46,109.613 40.18,109.613 40.18,111.677 45.856,111.677 45.856,113.622 
		37.164,113.622 	"/>
	<polygon fill-rule="evenodd" clip-rule="evenodd" points="47.405,113.622 47.405,104.016 51.851,104.016 55.065,110.327 
		58.281,104.016 62.727,104.016 62.727,113.622 59.67,113.622 59.67,106.954 56.495,113.622 53.676,113.622 50.421,106.954 
		50.421,113.622 47.405,113.622 	"/>
	<polygon fill-rule="evenodd" clip-rule="evenodd" points="64.274,113.622 64.274,104.016 72.928,104.016 72.928,105.921 
		67.292,105.921 67.292,107.707 72.531,107.707 72.531,109.613 67.292,109.613 67.292,111.677 72.928,111.677 72.928,113.622 
		64.274,113.622 	"/>
	<polygon fill-rule="evenodd" clip-rule="evenodd" points="74.238,113.622 74.238,104.016 78.922,104.016 83.447,110.407 
		83.447,104.016 86.423,104.016 86.423,113.622 82.375,113.622 77.255,106.834 77.255,113.622 74.238,113.622 	"/>
	<polygon fill-rule="evenodd" clip-rule="evenodd" points="87.178,104.016 96.229,104.016 96.229,106.16 93.172,106.16 
		93.172,113.622 90.155,113.622 90.155,106.16 87.178,106.16 87.178,104.016 	"/>
	<path fill-rule="evenodd" clip-rule="evenodd" d="M108.613,110.327c-0.04,2.778-2.024,3.294-3.97,3.294l0,0h-1.984v-2.063h0.992
		l0,0c1.468,0,1.905-0.119,1.984-1.628c0-0.833,0-1.469,0-2.064l0,0l0,0c-0.08-1.548-0.516-1.747-1.984-1.747l0,0h-0.992v-2.104
		h1.984l0,0c1.946,0,3.93,0.595,3.97,3.413C108.652,108.422,108.652,109.454,108.613,110.327L108.613,110.327L108.613,110.327z
		 M102.66,113.622h-1.906l0,0c-1.945,0-4.088-0.516-4.088-3.294c-0.04-1.151-0.04-1.707,0-2.898c0-2.818,2.103-3.413,4.088-3.413
		l0,0h1.906v2.104h-1.072l0,0c-1.31,0-1.866,0.159-1.906,1.747c0,0.635-0.04,1.23,0,2.064c0,1.429,0.715,1.628,1.906,1.628l0,0
		h1.072V113.622z"/>
	<path fill-rule="evenodd" clip-rule="evenodd" d="M109.288,106.715c0-1.946,1.469-2.699,3.969-2.699l0,0h3.454l0,0
		c2.382,0,3.89,1.032,3.89,2.699l0,0h-3.214l0,0c0-0.517-0.477-0.794-1.23-0.794l0,0h-2.263l0,0c-0.674,0-1.23,0.159-1.23,0.913
		c0,0.873,0.595,0.914,1.23,0.914l0,0h2.501l0,0c2.778,0,4.247,0.555,4.247,2.937c0,2.064-1.547,2.938-3.93,2.938l0,0h-3.493l0,0
		c-2.461,0-3.93-0.873-3.93-2.738l0,0h3.096l0,0c0,0.476,0.595,0.793,1.469,0.793l0,0h2.303l0,0c0.714,0,1.31-0.159,1.31-0.993
		c0-0.833-0.634-1.031-1.429-1.031l0,0h-2.104l0,0C110.518,109.653,109.288,109.176,109.288,106.715L109.288,106.715
		L109.288,106.715z"/>
	<path fill-rule="evenodd" clip-rule="evenodd" d="M21.484,117.472h2.421l3.771,9.686h-3.175l-0.873-2.342h-2.144v-1.905h1.389l0,0
		l-1.389-3.612V117.472z M15.252,127.158l3.771-9.686h2.461v1.827l0,0l-1.429,3.612h1.429v1.905h-2.143l-0.953,2.342H15.252
		L15.252,127.158z"/>
	<polygon fill-rule="evenodd" clip-rule="evenodd" points="26.446,117.472 29.939,117.472 32.956,124.974 36.012,117.472 
		39.426,117.472 35.338,127.158 30.575,127.158 26.446,117.472 	"/>
	<polygon fill-rule="evenodd" clip-rule="evenodd" points="40.22,127.158 40.22,117.472 48.913,117.472 48.913,119.417 
		43.236,119.417 43.236,121.204 48.516,121.204 48.516,123.148 43.236,123.148 43.236,125.212 48.913,125.212 48.913,127.158 
		40.22,127.158 	"/>
	<polygon fill-rule="evenodd" clip-rule="evenodd" points="50.739,127.158 50.739,117.472 53.756,117.472 53.756,125.212 
		58.439,125.212 58.439,127.158 50.739,127.158 	"/>
	<polygon fill-rule="evenodd" clip-rule="evenodd" points="59.75,127.158 59.75,117.472 62.766,117.472 62.766,125.212 
		67.49,125.212 67.49,127.158 59.75,127.158 	"/>
	<path fill-rule="evenodd" clip-rule="evenodd" d="M74.674,117.472h2.421l3.771,9.686H77.73l-0.873-2.342h-2.183v-1.905h1.39l0,0
		l-1.39-3.612V117.472z M68.482,127.158l3.771-9.686h2.421v1.827l-1.389,3.612h1.389v1.905h-2.144l-0.913,2.342H68.482
		L68.482,127.158z"/>
	<polygon fill-rule="evenodd" clip-rule="evenodd" points="81.502,127.158 81.502,117.472 86.146,117.472 90.631,123.942 
		90.631,117.472 93.648,117.472 93.648,127.158 89.56,127.158 84.519,120.291 84.519,127.158 81.502,127.158 	"/>
	<polygon fill-rule="evenodd" clip-rule="evenodd" points="95.593,127.158 95.593,117.472 104.247,117.472 104.247,119.417 
		98.61,119.417 98.61,121.204 103.85,121.204 103.85,123.148 98.61,123.148 98.61,125.212 104.247,125.212 104.247,127.158 
		95.593,127.158 	"/>
	<path fill-rule="evenodd" clip-rule="evenodd" d="M111.511,117.472h0.914l0,0c3.016,0,4.445,0.992,4.485,3.533
		c0,1.271,0,1.35,0,2.581c-0.04,2.5-1.389,3.572-4.485,3.572l0,0h-0.914v-1.906h0.595l0,0c1.23,0,1.786-0.555,1.786-1.707
		c0-0.12,0-2.143,0-2.382c0-0.992-0.715-1.746-1.786-1.746l0,0h-0.595V117.472z M106.112,117.472h5.398v1.946h-2.382v5.834l0,0
		h2.382v1.906h-5.398V117.472L106.112,117.472z"/>
	<path fill-rule="evenodd" clip-rule="evenodd" d="M123.419,117.472h2.421l3.771,9.686h-3.136l-0.873-2.342h-2.183v-1.905h1.389l0,0
		l-1.389-3.612l0,0V117.472z M117.227,127.158l3.771-9.686h2.421v1.827l-1.39,3.612h1.39v1.905h-2.144l-0.913,2.342H117.227
		L117.227,127.158z"/>
</g>
</svg>
