

<svg version="1.0" id="Capa_1" xmlns="http://www.w3.org/2000/svg" xmlns:xlink="http://www.w3.org/1999/xlink" x="0px" y="0px"
	 width="92.909px" height="94px" viewBox="0 0 92.909 94" enable-background="new 0 0 92.909 94" xml:space="preserve">
<g>
	<polygon fill="#000000" points="28.632,23.806 31.307,23.806 31.307,32.04 35.338,32.04 35.338,34.272 28.632,34.272 	"/>
	<path fill="#000000" d="M35.421,29.041c0-4.581,1.427-5.406,4.494-5.406c3.086,0,4.438,0.797,4.438,5.375
		c0,4.596-1.381,5.434-4.465,5.434C36.817,34.444,35.421,33.633,35.421,29.041 M41.619,29.55v-0.938c0-2.29-0.364-2.744-1.731-2.744
		c-1.353,0-1.717,0.413-1.717,2.703v0.95c0,2.277,0.393,2.746,1.744,2.746C41.284,32.269,41.619,31.842,41.619,29.55"/>
	<polygon fill="#000000" points="45.017,23.806 48.196,23.806 50.263,30.672 52.33,23.806 55.508,23.806 55.508,34.272 
		52.94,34.272 52.94,28.557 51.377,34.147 48.958,34.147 47.409,28.543 47.409,34.272 45.017,34.272 	"/>
	<polygon fill="#000000" points="28.619,35.635 31.03,35.635 34.177,40.653 34.177,35.635 36.602,35.635 36.602,45.725 
		34.484,45.725 31.03,40.214 31.03,45.725 28.619,45.725 	"/>
	<path fill="#000000" d="M43.927,40.68c0-4.305,1.22-5.17,4.234-5.17c1.421,0,2.302,0.111,2.877,0.224l-0.317,2.165
		c-0.579-0.099-1.673-0.206-2.6-0.206c-1.276,0-1.544,0.426-1.544,2.536v0.92c0,2.082,0.226,2.634,1.657,2.634
		c0.266,0,0.686-0.017,0.896-0.057v-3.181h2.261v4.991c-0.563,0.135-1.81,0.313-3.255,0.313
		C45.091,45.847,43.927,44.984,43.927,40.68"/>
	<path fill="#000000" d="M60.116,45.725h-2.821l-1.726-2.905h-0.996v2.905h-2.538v-10.09h4.139c2.287,0,3.341,0.728,3.341,3.538
		c0,1.769-0.434,2.647-1.529,3.015L60.116,45.725z M55.991,40.776c0.689,0,0.98-0.357,0.98-1.578c0-1.245-0.349-1.493-0.995-1.493
		h-1.403v3.071H55.991z"/>
	<polygon fill="#000000" points="43.692,37.842 43.692,35.637 37.243,35.637 37.243,45.725 43.692,45.725 43.692,43.572 
		39.826,43.572 39.826,40.767 40.576,41.734 42.812,41.734 42.812,39.584 39.826,39.584 39.826,37.842 	"/>
	<path fill="#000000" d="M64.823,35.596h-2.33l-3.366,10.13h2.553l0.662-2.138l0.47,0.878h2.121l0.352,1.26h2.708L64.823,35.596z
		 M62.645,42.434l0.885-3.085l0.843,3.085H62.645z"/>
	<path fill="#000000" d="M61.184,23.762h-2.41L55.28,34.272h2.65l0.66-2.184l0.466,0.876h2.244l0.365,1.308h2.807L61.184,23.762z
		 M58.931,30.86l0.917-3.199l0.871,3.199H58.931z"/>
	<path fill="#dfe0e1" d="M58.542,9.138c2.468,1.741,10.167,7.315,13.974,11.575C69.383,15.191,64.003,7.338,60.75,4.5
		c-6.041-0.457-13.405,0.501-19.113,1.244C45.28,5.756,55.255,8.074,58.542,9.138"/>
	<path fill="#e41c14" d="M79.651,33.637c-0.938-2.127-4.272-8.364-7.134-12.924c2.887,12.398-0.831,27.794-3.737,33.62
		c-5.516,5.275-22.068,8.723-31.361,6.706c-7.246-5.057-17.105-16.654-19.433-22.431c3.37-12.514,12.382-26.454,23.676-32.868
		C37.611,6.396,28.845,8.72,24.821,10.06c-5.261,9.02-9.41,19.868-10.72,32.321c2.785,6.909,12.869,20.332,21.541,26.375
		c14.139-0.951,25.092-4.38,32.408-8.085C72.88,54.656,79.394,38.984,79.651,33.637"/>
</g>
</svg>
