<svg width="120" height="29" viewBox="0 0 1200.66 289.82" fill="currentColor" xmlns="http://www.w3.org/2000/svg" class="dark:white-filter" aria-label="IT Management Software"><path d="M387.21 56.17c-10.11 0-15.23-4.91-15.23-12.98V26.17h13.33c9.8 0 15.23 4.89 15.23 12.98v17.02h-13.33Zm3.81 162.97c-12.7 0-19.04-6.05-19.04-17.87V83.57h9.21c12.7 0 19.04 6.07 19.04 17.89v117.68h-9.21Zm153.67 0c-12.7 0-19.04-6.05-19.04-17.87v-45.51c0-42.39-11.84-57.39-43.55-57.39h-27.13v120.78h-8.93c-12.41 0-18.75-6.05-18.75-17.87V83.57h58.84c45 0 67.5 21.05 67.5 63.47v72.11h-8.95Zm100.66-1.73c-1.16 2.89-4.91 4.34-11.55 4.34s-10.37-1.45-11.54-4.34L561.35 83.57h17.61c9.8 0 15.86 3.81 19.04 11.54l38.07 95.77 37.5-95.77c4.32-9.52 7.79-11.54 17.87-11.54h12.13l-58.21 133.84Zm192.4-3.16c0 57.39-17.61 75.57-79.63 75.57h-4.61l5.2-14.71h4.32c36.62 0 46.73-13.84 46.73-60V98.64h-34.63c-26.54 0-39.8 15.58-39.8 46.73v12.11c0 31.16 12.41 46.73 36.93 46.73h19.32l-4.61 15h-14.7c-42.98 0-65.77-19.89-65.77-61.73v-12.11c0-41.88 22.84-61.73 65.77-61.73h65.48l-.02 130.6Zm128.91 4.89c-12.39 0-18.45-6.05-18.45-18.18v-47.59h-29.35c-26.82 0-35.2 7.21-35.2 26.54s9.52 24.23 32.59 24.23h13.57l5.18 15h-22.27c-37.21 0-55.68-12.96-55.68-39.23 0-28.84 17.89-41.25 58.55-41.25h32.04c-2.04-26.82-15.02-40.37-38.95-40.37h-28.55l-4.61-14.71h33.18c44.72 0 66.91 19.63 66.91 58.55v77.02h-8.97Zm94.32 0c-42.7 0-54.52-12.11-54.52-48.45V98.36h-23.07l5.48-14.71h17.55V45h8.07c12.98 0 19.34 6.05 19.34 17.87v20.77h37.79l-5.48 14.71h-32.36v76.14c0 19.91 7.21 29.71 21.62 29.71h14.71l5.2 15-14.33-.08Zm138.45-60.57H1123l4.89-15.57h48.47c0-31.16-9.23-46.73-33.46-46.73h-3.81c-23.36 0-33.46 19.91-33.46 49.04v17.89c0 23.07 16.45 40.95 39.52 40.95h37.5l5.48 15h-42.62c-42.98 0-68.66-21.05-68.66-61.73v-12.11c0-38.36 23.95-63.18 62.3-63.18h3.81c38.38 0 57.7 20.2 57.7 60.31.11 5.41-.3 10.81-1.22 16.14ZM127.27 266.96V137.4c-.09-7.36 5.79-13.4 13.15-13.5h.59v129.77c0 7.36-5.96 13.33-13.32 13.33h-.19l-.23-.04Zm78.62-229.95c-.01 15.08-12.24 27.29-27.32 27.28-15.08-.01-27.29-12.24-27.28-27.32.01-15.08 12.24-27.29 27.32-27.28 15.07 0 27.28 12.21 27.28 27.28v.04Z"></path><path d="M149.15.84c-4.98-.55-9.99-.83-15-.84C60.04.02-.02 60.11 0 134.22c.02 64.94 46.54 120.55 110.46 132.03v-58.36C69.4 195.24 46.36 151.7 59 110.64c10.04-32.62 40.17-54.88 74.3-54.9 2.06 0 4.13.1 6.17.27-14.65-6.1-21.58-22.91-15.48-37.56a28.748 28.748 0 0 1 25-17.65l.15.04Zm102.2 75.95c0 12.34-10.01 22.35-22.35 22.35s-22.35-10.01-22.35-22.35c0-12.33 9.99-22.34 22.33-22.35 12.34-.01 22.36 9.99 22.37 22.33v.02Zm15.68 47.69c0 9.46-7.67 17.13-17.13 17.13s-17.13-7.67-17.13-17.13 7.67-17.13 17.13-17.13 17.13 7.67 17.13 17.13Zm-4.41 41.07c0 6.71-5.44 12.14-12.14 12.14-6.71 0-12.14-5.44-12.14-12.14 0-6.71 5.44-12.14 12.14-12.14h.02c6.7.01 12.13 5.44 12.13 12.14Zm-13.82 32.97c-.01 4.43-3.61 8.01-8.03 7.99-4.43-.01-8.01-3.61-8-8.03.01-4.42 3.6-8 8.01-8 4.43.01 8.01 3.6 8.01 8.03Zm-15.02 20.83c0 3.15-2.56 5.71-5.71 5.71s-5.71-2.56-5.71-5.71 2.56-5.71 5.71-5.71 5.71 2.56 5.71 5.71Zm-17.34 17a3.576 3.576 0 0 1-3.56 3.6 3.576 3.576 0 0 1-3.6-3.56 3.576 3.576 0 0 1 3.56-3.6h.02c1.97 0 3.57 1.59 3.58 3.56Zm-15.06 11.31c0 1.34-1.08 2.42-2.42 2.42-1.34 0-2.42-1.08-2.42-2.42 0-1.33 1.07-2.41 2.4-2.42a2.416 2.416 0 0 1 2.44 2.4v.02Zm-17.51 9.19c.01.66-.52 1.21-1.18 1.22-.66.01-1.21-.52-1.22-1.18-.01-.66.52-1.21 1.18-1.22h.04c.65.01 1.17.53 1.18 1.18Z"></path></svg>