<svg class="logo__img" viewBox="0 0 100 30" fill="none" xmlns="http://www.w3.org/2000/svg">
    <title>Veeam logo</title>
    <path d="M14.4966 22.2889L7.58752 7.89778H10.7018C10.7018 7.89778 15.6394 18.1992 15.7605 18.7213H15.8205C15.9446 18.1992 20.8792 7.89778 20.8792 7.89778H24.0235L17.1145 22.2889H14.4966Z" fill="currentColor"></path>
    <path d="M37.4043 16.1968H26.2151C26.6174 18.5336 28.3407 20.009 30.5623 20.009C32.3826 20.009 33.5825 19.3003 34.1989 17.9796H37.095C36.2304 20.7147 33.7366 22.5903 30.5583 22.5903C26.3652 22.5903 23.284 19.5478 23.284 15.0868C23.284 10.6598 26.3042 7.58334 30.5583 7.58334C34.35 7.58334 37.4633 10.8135 37.4633 15.0868C37.4653 15.5181 37.4653 15.7656 37.4043 16.1968ZM26.2451 13.859H34.5382C34.354 11.8896 32.7519 10.1707 30.5623 10.1707C28.3407 10.1677 26.6744 11.6161 26.2451 13.859Z" fill="currentColor"></path>
    <path d="M52.7545 16.1968H41.5643C41.9666 18.5336 43.6899 20.009 45.9115 20.009C47.7318 20.009 48.9317 19.3003 49.5481 17.9796H52.4443C51.5796 20.7147 49.0858 22.5903 45.9075 22.5903C41.7144 22.5903 38.6332 19.5478 38.6332 15.0868C38.6332 10.6598 41.6534 7.58334 45.9075 7.58334C49.6993 7.58334 52.8125 10.8135 52.8125 15.0868C52.8145 15.5181 52.8145 15.7656 52.7545 16.1968ZM41.5953 13.859H49.8884C49.7043 11.8896 48.1021 10.1707 45.9125 10.1707C43.6899 10.1677 42.0277 11.6161 41.5953 13.859Z" fill="currentColor"></path>
    <path d="M68.4459 15.0898V22.2859H65.9491L65.7009 20.0419C64.5911 21.7039 62.6507 22.5933 60.8904 22.5933C56.9446 22.5933 53.9544 19.457 53.9544 15.0898C53.9544 10.7866 57.1587 7.58633 61.2587 7.58633C65.0235 7.58633 68.4459 10.2915 68.4459 15.0898ZM65.6059 15.0898C65.6059 11.9235 63.5113 10.1717 61.2587 10.1717C58.7919 10.1717 56.7904 12.1411 56.7904 15.0898C56.7904 18.0425 58.6408 20.008 61.2587 20.008C63.4813 20.008 65.6059 18.1623 65.6059 15.0898Z" fill="currentColor"></path>
    <path d="M70.3564 22.2849V13.7692C70.3564 10.1717 72.669 7.59035 76.2767 7.59035C79.1728 7.59035 80.7149 9.52686 80.9331 10.2046H80.9931C81.2073 9.52886 82.7494 7.59035 85.6495 7.59035C89.2561 7.59035 91.5698 10.1717 91.5698 13.7692V22.2859H88.7338V13.9838C88.7338 11.647 87.685 10.2326 85.5595 10.2326C83.4309 10.2326 82.3851 11.647 82.3851 14.0447V22.3168H79.5491V14.0447C79.5491 11.647 78.5003 10.2326 76.3747 10.2326C74.2492 10.2326 73.2004 11.647 73.2004 13.9838V22.2859L70.3564 22.2849Z" fill="currentColor"></path>
</svg>